<?xml version="1.0" encoding="UTF-8"?>
<svg xmlns="http://www.w3.org/2000/svg" xmlns:xlink="http://www.w3.org/1999/xlink" viewBox="0 0 1440 1080" width="1440" height="1080" role="img" aria-label="Business Intelligence — Analítica de gran volumen">
<defs>
<linearGradient id="bg" x1="0" y1="0" x2="1" y2="1"><stop stop-color="#fafeff"/><stop offset=".6" stop-color="#edf8ff"/><stop offset="1" stop-color="#f8fcff"/></linearGradient>
<linearGradient id="card" x1="0" y1="0" x2="1" y2="1"><stop stop-color="#fff"/><stop offset="1" stop-color="#f0f8fc"/></linearGradient>
<linearGradient id="steel" x1="0" x2="1" y1="0" y2="1"><stop stop-color="#0b6b9f"/><stop offset=".45" stop-color="#14b4be"/><stop offset="1" stop-color="#173c75"/></linearGradient>
<filter id="shadow" x="-25%" y="-35%" width="160%" height="180%"><feDropShadow dx="0" dy="13" stdDeviation="14" flood-color="#386f8e" flood-opacity=".17"/></filter>
</defs>
<rect width="1440" height="1080" fill="url(#bg)"/>
<path d="M0 204 L542 0 H1010 L268 688 Z" fill="#b1e6f8" opacity=".14"/>
<path d="M930 0 H1440 V420 L1180 690 Z" fill="#ff8e45" opacity=".08"/>
<path d="M1310 0 V780 M1240 0 V800 M1170 0 V820 M0 695 H1440 M0 635 H1440" stroke="#b5d8e3" stroke-width="1.4" opacity=".32"/>
<g fill="#0d91d4" opacity=".35"><circle cx="78" cy="75" r="3.2"/><circle cx="104" cy="75" r="3.2"/><circle cx="130" cy="75" r="3.2"/><circle cx="156" cy="75" r="3.2"/><circle cx="182" cy="75" r="3.2"/><circle cx="208" cy="75" r="3.2"/><circle cx="78" cy="102" r="3.2"/><circle cx="104" cy="102" r="3.2"/><circle cx="130" cy="102" r="3.2"/><circle cx="156" cy="102" r="3.2"/><circle cx="182" cy="102" r="3.2"/><circle cx="208" cy="102" r="3.2"/></g>
<g fill="#f34c4a" opacity=".4"><circle cx="1230" cy="85" r="3"/><circle cx="1254" cy="85" r="3"/><circle cx="1278" cy="85" r="3"/><circle cx="1302" cy="85" r="3"/><circle cx="1326" cy="85" r="3"/><circle cx="1350" cy="85" r="3"/><circle cx="1230" cy="110" r="3"/><circle cx="1254" cy="110" r="3"/><circle cx="1278" cy="110" r="3"/><circle cx="1302" cy="110" r="3"/><circle cx="1326" cy="110" r="3"/><circle cx="1350" cy="110" r="3"/></g>
<text x="76" y="94" font-size="20" font-weight="750" letter-spacing="3.2" font-family="Inter,Segoe UI,Arial,sans-serif" fill="#327e98">POWER BI · DATA MART · KPIS</text>
<g filter="url(#shadow)"><rect x="90" y="130" width="690" height="540" rx="22" fill="url(#card)" stroke="#c4dbe4" stroke-width="2"/><rect x="90" y="130" width="690" height="12" rx="6" fill="#f54945"/><text x="115" y="183" font-size="23" font-weight="750" fill="#123752">HISTÓRICO · INDICADORES</text><text x="126" y="312" font-size="105" font-weight="850" fill="#114772">40M</text><text x="135" y="354" font-size="22" fill="#52778f">REGISTROS PROCESADOS</text><g><rect x="145" y="502" width="26" height="63" rx="7" fill="#127bd4" opacity=".87"/><rect x="187" y="463" width="26" height="102.00000000000001" rx="7" fill="#f54945" opacity=".87"/><rect x="229" y="485.5" width="26" height="79.5" rx="7" fill="#fa9c28" opacity=".87"/><rect x="271" y="430" width="26" height="135" rx="7" fill="#e4c724" opacity=".87"/><rect x="313" y="451" width="26" height="114" rx="7" fill="#1abb69" opacity=".87"/><rect x="355" y="422.5" width="26" height="142.5" rx="7" fill="#127bd4" opacity=".87"/><path d="M157 473 L200 500 L242 453 L284 462 L326 430 L368 420" fill="none" stroke="#183f65" stroke-width="5" stroke-linecap="round" stroke-linejoin="round"/></g><g transform="translate(490,390)"><circle cx="90" cy="92" r="76" fill="none" stroke="#d8e8ee" stroke-width="28"/><path d="M90 16 A76 76 0 1 1 17 116" fill="none" stroke="#f54c49" stroke-width="28"/><path d="M17 116 A76 76 0 0 1 90 16" fill="none" stroke="#28bd77" stroke-width="28"/></g></g><g filter="url(#shadow)"><rect x="855" y="200" width="450" height="480" rx="22" fill="url(#card)" stroke="#c4dbe4" stroke-width="2"/><rect x="855" y="200" width="450" height="12" rx="6" fill="#1abb69"/><text x="880" y="253" font-size="23" font-weight="750" fill="#123752">DATOS → INSIGHTS</text><g><rect x="930" y="437" width="26" height="63" rx="7" fill="#127bd4" opacity=".87"/><rect x="972" y="398" width="26" height="102.00000000000001" rx="7" fill="#f54945" opacity=".87"/><rect x="1014" y="420.5" width="26" height="79.5" rx="7" fill="#fa9c28" opacity=".87"/><rect x="1056" y="365" width="26" height="135" rx="7" fill="#e4c724" opacity=".87"/><rect x="1098" y="386" width="26" height="114" rx="7" fill="#1abb69" opacity=".87"/><rect x="1140" y="357.5" width="26" height="142.5" rx="7" fill="#127bd4" opacity=".87"/><path d="M942 408 L985 435 L1027 388 L1069 397 L1111 365 L1153 355" fill="none" stroke="#183f65" stroke-width="5" stroke-linecap="round" stroke-linejoin="round"/></g><rect x="932" y="565" width="278" height="18" rx="8" fill="#e1ecf2"/><rect x="932" y="598" width="225" height="18" rx="8" fill="#d4e9f1"/></g>
<path d="M0 790 H1440 V1080 H0 Z" fill="#fbfdff" opacity=".96"/>
<path d="M75 830 H1365" stroke="#daeaf0" stroke-width="2"/>
<text x="78" y="915" font-family="Inter,Segoe UI,Arial,sans-serif" font-size="59" font-weight="800" fill="#102d45">Business Intelligence</text>
<text x="78" y="995" font-family="Inter,Segoe UI,Arial,sans-serif" font-size="56" font-weight="690" fill="#197da2">Analítica de gran volumen</text>
<rect x="78" y="1032" width="90" height="8" rx="4" fill="#267bcc"/><rect x="169" y="1032" width="65" height="8" rx="4" fill="#f44442"/><rect x="235" y="1032" width="65" height="8" rx="4" fill="#ff9926"/><rect x="301" y="1032" width="65" height="8" rx="4" fill="#f4d14f"/><rect x="367" y="1032" width="65" height="8" rx="4" fill="#20bd72"/>
</svg>