<?xml version="1.0" encoding="UTF-8"?>
<svg xmlns="http://www.w3.org/2000/svg" xmlns:xlink="http://www.w3.org/1999/xlink" viewBox="0 0 1440 1080" width="1440" height="1080" role="img" aria-label="ATD-Relay — Consultas SQL de solo lectura">
<defs>
<linearGradient id="bg" x1="0" y1="0" x2="1" y2="1"><stop stop-color="#fafeff"/><stop offset=".6" stop-color="#edf8ff"/><stop offset="1" stop-color="#f8fcff"/></linearGradient>
<linearGradient id="card" x1="0" y1="0" x2="1" y2="1"><stop stop-color="#fff"/><stop offset="1" stop-color="#f0f8fc"/></linearGradient>
<linearGradient id="steel" x1="0" x2="1" y1="0" y2="1"><stop stop-color="#0b6b9f"/><stop offset=".45" stop-color="#14b4be"/><stop offset="1" stop-color="#173c75"/></linearGradient>
<filter id="shadow" x="-25%" y="-35%" width="160%" height="180%"><feDropShadow dx="0" dy="13" stdDeviation="14" flood-color="#386f8e" flood-opacity=".17"/></filter>
</defs>
<rect width="1440" height="1080" fill="url(#bg)"/>
<path d="M0 204 L542 0 H1010 L268 688 Z" fill="#b1e6f8" opacity=".14"/>
<path d="M930 0 H1440 V420 L1180 690 Z" fill="#ff8e45" opacity=".08"/>
<path d="M1310 0 V780 M1240 0 V800 M1170 0 V820 M0 695 H1440 M0 635 H1440" stroke="#b5d8e3" stroke-width="1.4" opacity=".32"/>
<g fill="#0d91d4" opacity=".35"><circle cx="78" cy="75" r="3.2"/><circle cx="104" cy="75" r="3.2"/><circle cx="130" cy="75" r="3.2"/><circle cx="156" cy="75" r="3.2"/><circle cx="182" cy="75" r="3.2"/><circle cx="208" cy="75" r="3.2"/><circle cx="78" cy="102" r="3.2"/><circle cx="104" cy="102" r="3.2"/><circle cx="130" cy="102" r="3.2"/><circle cx="156" cy="102" r="3.2"/><circle cx="182" cy="102" r="3.2"/><circle cx="208" cy="102" r="3.2"/></g>
<g fill="#f34c4a" opacity=".4"><circle cx="1230" cy="85" r="3"/><circle cx="1254" cy="85" r="3"/><circle cx="1278" cy="85" r="3"/><circle cx="1302" cy="85" r="3"/><circle cx="1326" cy="85" r="3"/><circle cx="1350" cy="85" r="3"/><circle cx="1230" cy="110" r="3"/><circle cx="1254" cy="110" r="3"/><circle cx="1278" cy="110" r="3"/><circle cx="1302" cy="110" r="3"/><circle cx="1326" cy="110" r="3"/><circle cx="1350" cy="110" r="3"/></g>
<text x="76" y="94" font-size="20" font-weight="750" letter-spacing="3.2" font-family="Inter,Segoe UI,Arial,sans-serif" fill="#327e98">ACCESO AISLADO · SOLO LECTURA</text>
<path d="M350 396 H650 M850 396 H1130" stroke="#1590d1" stroke-width="9" stroke-linecap="round" stroke-dasharray="15 18"/><g filter="url(#shadow)"><rect x="76" y="178" width="362" height="485" rx="22" fill="url(#card)" stroke="#c4dbe4" stroke-width="2"/><rect x="76" y="178" width="362" height="12" rx="6" fill="#f54945"/><text x="101" y="231" font-size="23" font-weight="750" fill="#123752">CONSULTAS SQL</text><rect x="108" y="287" width="298" height="80" rx="14" fill="#f6fbfe" stroke="#cfe1eb"/><text x="137" y="334" font-size="30" fill="#f54945" font-family="Consolas,monospace">SELECT</text><rect x="108" y="391" width="298" height="80" rx="14" fill="#f6fbfe" stroke="#cfe1eb"/><text x="137" y="438" font-size="30" fill="#fa9c28" font-family="Consolas,monospace">SELECT</text><rect x="108" y="495" width="298" height="80" rx="14" fill="#f6fbfe" stroke="#cfe1eb"/><text x="137" y="542" font-size="30" fill="#e4c724" font-family="Consolas,monospace">SELECT</text></g><g filter="url(#shadow)"><rect x="578" y="251" width="291" height="291" rx="56" fill="url(#steel)" stroke="#d3f6fc" stroke-width="8"/><path d="M723 295 L814 330 L811 428 Q778 487 723 508 Q665 483 635 428 L633 330 Z" fill="#073c6b" stroke="#24d0d6" stroke-width="12"/><text x="723" y="431" text-anchor="middle" font-size="83" fill="#fff">✓</text></g><g filter="url(#shadow)"><rect x="1030" y="228" width="300" height="395" rx="22" fill="url(#card)" stroke="#c4dbe4" stroke-width="2"/><rect x="1030" y="228" width="300" height="12" rx="6" fill="#1abb69"/><text x="1055" y="281" font-size="23" font-weight="750" fill="#123752">RESULTADO</text><text x="1060" y="335" font-size="50" fill="#135075" font-family="Consolas,monospace">{</text><rect x="1084" y="365" width="150" height="14" rx="7" fill="#fa9c28"/><rect x="1084" y="418" width="168" height="14" rx="7" fill="#e4c724"/><rect x="1084" y="471" width="186" height="14" rx="7" fill="#1abb69"/><text x="1060" y="574" font-size="48" fill="#135075" font-family="Consolas,monospace">}</text></g>
<path d="M0 790 H1440 V1080 H0 Z" fill="#fbfdff" opacity=".96"/>
<path d="M75 830 H1365" stroke="#daeaf0" stroke-width="2"/>
<text x="78" y="915" font-family="Inter,Segoe UI,Arial,sans-serif" font-size="59" font-weight="800" fill="#102d45">ATD-Relay</text>
<text x="78" y="995" font-family="Inter,Segoe UI,Arial,sans-serif" font-size="56" font-weight="690" fill="#197da2">Consultas SQL de solo lectura</text>
<rect x="78" y="1032" width="90" height="8" rx="4" fill="#267bcc"/><rect x="169" y="1032" width="65" height="8" rx="4" fill="#f44442"/><rect x="235" y="1032" width="65" height="8" rx="4" fill="#ff9926"/><rect x="301" y="1032" width="65" height="8" rx="4" fill="#f4d14f"/><rect x="367" y="1032" width="65" height="8" rx="4" fill="#20bd72"/>
</svg>